<svg width="897" height="1595" viewBox="0 0 897 1595" fill="none" xmlns="http://www.w3.org/2000/svg">
<g clip-path="url(#clip0_9_14)">
<mask id="mask0_9_14" style="mask-type:luminance" maskUnits="userSpaceOnUse" x="0" y="0" width="897" height="1595">
<path d="M897 0H0V1595H897V0Z" fill="white"/>
</mask>
<g mask="url(#mask0_9_14)">
<path d="M45.4721 322.977C143.096 88.6373 466.779 -30.2311 685.037 110.421C856.308 208.49 917.17 457.915 805.304 621.566C772.193 674.372 718.876 708.561 670.301 745.424C769.75 817.94 869.334 909.558 891.852 1036.71C914.859 1190.25 862.028 1367.66 726.539 1455.14C676.63 1488.36 624.406 1520.48 566.585 1537.15C456.177 1554.06 338.71 1547 238.402 1494.07C103.283 1435.79 6.2682 1293.68 11.0094 1145.36C11.618 958.839 10.8877 772.198 10.7658 585.672C8.45299 497.095 9.1834 405.594 45.4584 322.986M409.427 275.291C301.694 305.587 223.18 412.411 224.638 524.108C225.49 723.161 216.36 922.34 224.759 1121.52C227.072 1183.57 253.366 1244.89 299.502 1287.11C357.201 1343.57 446.063 1358.65 522.269 1336.39C663.963 1301.95 725.193 1102.17 631.219 992.175C594.822 942.655 531.886 929.149 483.316 896.297C442.658 862.716 446.431 804.07 444.119 756.495C445.58 716.708 438.032 668.77 468.586 637.375C513.018 598.928 581.795 593.086 614.298 539.673C658.729 465.818 652.034 355.464 581.065 299.977C534.077 259.704 466.157 257.392 409.427 275.278V275.291Z" fill="#7580FF"/>
<path d="M45.4721 322.977C143.096 88.6373 466.779 -30.2311 685.037 110.421C856.308 208.49 917.17 457.915 805.304 621.566C772.193 674.372 718.876 708.561 670.301 745.424C769.75 817.94 869.334 909.558 891.852 1036.71C914.859 1190.25 862.028 1367.66 726.539 1455.14C676.63 1488.36 624.406 1520.48 566.585 1537.15C456.177 1554.06 338.71 1547 238.402 1494.07C103.283 1435.79 6.2682 1293.68 11.0094 1145.36C11.618 958.839 10.8877 772.198 10.7658 585.672C8.45299 497.095 9.1834 405.594 45.4584 322.986M409.427 275.291C301.694 305.587 223.18 412.411 224.638 524.108C225.49 723.161 216.36 922.34 224.759 1121.52C227.072 1183.57 253.366 1244.89 299.502 1287.11C357.201 1343.57 446.063 1358.65 522.269 1336.39C663.963 1301.95 725.193 1102.17 631.219 992.175C594.822 942.655 531.886 929.149 483.316 896.297C442.658 862.716 446.431 804.07 444.119 756.495C445.58 716.708 438.032 668.77 468.586 637.375C513.018 598.928 581.795 593.086 614.298 539.673C658.729 465.818 652.034 355.464 581.065 299.977C534.077 259.704 466.157 257.392 409.427 275.278V275.291Z" stroke="#7580FF" stroke-width="2.98176" stroke-miterlimit="10"/>
</g>
</g>
<defs>
<clipPath id="clip0_9_14">
<rect width="897" height="1595" fill="white"/>
</clipPath>
</defs>
</svg>
