<svg width="40" height="40" viewBox="0 0 40 40" fill="none" xmlns="http://www.w3.org/2000/svg">
<mask id="mask0_320_1295" style="mask-type:luminance" maskUnits="userSpaceOnUse" x="0" y="0" width="40" height="40">
<path d="M40 0H0V40H40V0Z" fill="white"/>
</mask>
<g mask="url(#mask0_320_1295)">
<path d="M1.81842 8.70045C2.99211 7.61473 4.04044 4.51115 5.33944 5.44317C10.2869 8.993 12.208 15.7235 16.9429 19.5524C18.4272 20.7527 21.031 18.4755 22.6685 19.4562C24.9228 20.806 26.4261 23.3344 27.3602 25.7904C27.7069 26.702 27.0064 28.7184 26.0778 28.4203C22.8335 27.3789 20.9359 23.488 17.629 22.6668C16.4681 22.3785 16.9103 24.9823 16.2504 25.9799C15.6039 26.9572 13.8899 27.3158 13.7818 28.4825C13.6401 30.0142 18.3594 34.1201 14.0023 34.2952C13.0502 34.3334 12.2073 33.336 11.7977 32.4756C8.10345 24.7153 5.14465 16.6255 1.81812 8.69966M5.74276 8.27118C5.19422 7.4461 4.33348 10.1009 4.65601 11.0378C6.13013 15.3196 8.3496 19.3544 10.8568 23.1257C11.4526 24.0219 14.0544 25.6647 13.704 24.6472C11.7283 18.9083 9.10312 13.3258 5.74276 8.27118Z" fill="#1C1C1C"/>
<path d="M30.1571 6.62521C33.4647 3.68881 36.9878 6.08524 38.0624 9.74262C38.4828 11.1733 37.5918 12.7229 36.9819 14.0835C34.173 20.3498 31.0798 26.4907 27.8406 32.5459C27.387 33.3939 26.8966 34.5919 25.9434 34.7194C25.0914 34.8334 23.9473 33.9239 23.9655 33.0645C24.0016 31.364 25.3579 29.9608 26.0769 28.4194C28.6184 22.9715 31.9047 17.8886 34.3861 12.413C34.8582 11.371 35.5804 9.98578 34.9543 9.02839C34.4198 8.21109 32.8194 8.23587 32.0325 8.81414C28.1531 11.6648 28.3627 18.0535 24.8474 21.343C24.1455 21.9997 22.4757 20.397 22.6677 19.4551C23.2047 16.8188 25.3044 14.7644 26.6606 12.4409C27.8009 10.4875 28.4656 8.12678 30.1571 6.62521Z" fill="#1C1C1C"/>
<path d="M21.8174 22.37C22.872 21.5031 23.6106 24.7414 23.5034 26.1022C23.256 29.2456 17.882 25.6051 21.8174 22.37Z" fill="#1C1C1C"/>
</g>
</svg>
