<svg viewBox="0 0 1100 221" fill="none" xmlns="http://www.w3.org/2000/svg">
<path d="M0 171.785V13.1454C5.52624 12.7643 11.7192 12.5101 18.5793 12.3831C25.5029 12.1926 32.5219 12.0656 39.636 12.0021C46.75 11.875 53.2608 11.8115 59.1681 11.8115C82.162 11.8115 99.1219 15.432 110.048 22.6734C120.974 29.9147 126.436 40.2366 126.436 53.6391C126.436 62.4049 124.054 69.5823 119.291 75.1724C114.463 80.8258 109.032 84.891 102.998 87.3683C112.399 90.0996 119.545 94.1329 124.436 99.4686C129.263 104.868 131.677 112.934 131.677 123.669C131.677 140.502 125.103 152.92 111.954 160.923C98.7422 168.99 80.4802 173.024 57.1671 173.024C43.8917 173.024 32.5215 172.897 23.0573 172.643C13.5293 172.389 5.84352 172.103 0 171.785ZM61.6464 107.283H43.2576V139.773C47.1323 140.281 50.6256 140.599 53.7384 140.726C56.8508 140.79 59.7413 140.821 62.4086 140.821C69.3322 140.821 75.0807 139.551 79.6541 137.01C84.291 134.533 86.6092 129.674 86.6092 122.433C86.6092 117.224 84.6719 113.413 80.7974 110.999C76.9863 108.522 70.6027 107.283 61.6464 107.283ZM43.2576 44.8734V76.0296H60.6936C67.7443 76.0296 72.8578 74.7593 76.0334 72.2186C79.2094 69.6142 80.7973 65.4539 80.7973 59.7371C80.7973 56.6882 80.2573 54.0203 79.1776 51.7336C78.0978 49.5104 75.8429 47.7318 72.413 46.3979C68.983 45.0005 63.7427 44.3018 56.692 44.3018H50.4991C48.0218 44.3018 45.6076 44.4923 43.2576 44.8734ZM232.958 46.8742H277.073V172.26H242.582L238.771 155.395C235.087 162.128 230.164 167.337 224.003 171.021C217.905 174.705 209.901 176.548 199.992 176.548C185.573 176.548 174.362 172.451 166.358 164.257C158.355 155.999 154.353 144.248 154.353 129.004V46.8708H198.468V123.474C198.468 130.334 200.183 135.066 203.613 137.67C207.043 140.275 210.695 141.577 214.57 141.577C219.143 141.577 222.923 140.434 225.908 138.147C228.957 135.86 231.307 132.811 232.958 129L232.958 46.8742ZM306.802 138.535V22.9605L350.344 11.6225V46.8756H385.883V81.6526H350.344V125.671C350.725 129.356 352.155 131.674 354.632 132.627C357.173 133.579 361.365 134.056 367.209 134.056H374.641C376.927 134.056 379.913 132.944 383.597 130.721V166.736C379.595 169.468 374.768 171.628 369.114 173.215C363.525 174.803 357.014 175.597 349.582 175.597C335.862 175.597 325.286 172.517 317.854 166.355C310.486 160.258 306.802 150.985 306.802 138.535ZM407.51 138.535V22.9605L451.148 11.6225V46.8756H486.687V81.6526H451.148V125.671C451.466 129.356 452.895 131.674 455.436 132.627C457.913 133.579 462.105 134.056 468.013 134.056H475.444C477.731 134.056 480.717 132.944 484.401 130.721V166.736C480.336 169.468 475.508 171.628 469.918 173.215C464.265 174.803 457.754 175.597 450.386 175.597C436.602 175.597 426.026 172.517 418.658 166.355C411.226 160.258 407.51 150.985 407.51 138.535ZM578.63 143.585C585.681 143.585 593.049 142.822 600.735 141.298C608.485 139.773 614.71 138.281 619.41 136.82V167.499C613.884 170.675 606.77 172.994 598.067 174.455C589.429 175.852 580.917 176.551 572.532 176.551C559.765 176.551 548.903 174.709 539.947 171.025C530.927 167.34 523.655 162.354 518.128 156.066C512.602 149.777 508.569 142.6 506.028 134.533C503.487 126.466 502.217 118.049 502.217 109.284C502.217 96.8972 504.885 85.6546 510.22 75.555C515.493 65.5191 523.115 57.5473 533.088 51.6399C543.123 45.7964 555.097 42.8741 569.008 42.8741C583.427 42.8741 595.146 45.8277 604.166 51.7349C613.122 57.7056 619.665 65.5186 623.794 75.1738C627.922 84.8285 629.987 95.1188 629.987 106.044C629.987 109.411 629.828 113.19 629.51 117.382C629.129 121.574 628.621 124.941 627.986 127.482H544.807C547.538 133.707 551.73 137.931 557.383 140.154C563.1 142.441 570.182 143.585 578.63 143.585ZM542.043 100.995H590.158C590.158 93.1184 588.19 87.1159 584.251 82.987C580.313 78.8582 575.231 76.794 569.006 76.794C552.873 76.794 543.886 84.8609 542.043 100.995ZM700.208 172.265H656.189V46.8795H693.443V66.0305C697.509 59.2975 702.559 54.343 708.593 51.1668C714.627 47.9909 720.82 45.8945 727.172 44.8783C733.588 43.862 739.4 43.3539 744.608 43.3539C744.735 43.3539 744.799 43.4174 744.799 43.5445V86.1343C739.971 84.8004 734.858 84.1335 729.459 84.1335C723.615 84.1335 717.899 85.1498 712.308 87.1824C706.782 89.215 702.749 92.8359 700.208 98.0444V172.265ZM840.555 46.8795V81.6564H807.589V172.266H762.427V54.1188C762.427 42.3674 764.078 32.935 767.381 25.8209C770.684 18.7068 774.972 13.3078 780.244 9.62329C785.516 5.87569 791.423 3.33482 797.966 2.0009C804.508 0.666935 811.051 0 817.593 0C822.167 0 826.899 0.158776 831.79 0.47644C836.617 0.857512 841.635 1.61985 846.844 2.76321V37.2541C843.668 36.6188 840.111 36.0155 836.173 35.4437C832.235 34.8085 828.392 34.4909 824.644 34.4909C819.944 34.4909 815.942 35.285 812.639 36.8729C809.272 38.4608 807.589 41.4464 807.589 45.8292V46.8773L840.555 46.8795ZM909.061 172.265H865.042V46.8795H902.296V66.0305C906.298 59.2975 911.316 54.343 917.351 51.1668C923.448 47.9909 929.673 45.8945 936.025 44.8783C942.441 43.862 948.221 43.3539 953.366 43.3539C953.557 43.3539 953.652 43.4174 953.652 43.5445V86.1343C948.761 84.8004 943.648 84.1335 938.312 84.1335C932.405 84.1335 926.688 85.1498 921.162 87.1824C915.636 89.215 911.602 92.8359 909.062 98.0444L909.061 172.265ZM1100 46.8795L1022.44 220.193H978.613L1011.39 159.502L959.746 46.8842H1008.05L1030.73 111.103L1052.17 46.8842L1100 46.8795Z" fill="black"/>
</svg>
